# xmcd
#
# Track frame offsets:
#	225
#	14832
#	34169
#	48939
#	63925
#	79790
#	105254
#	121696
#	143551
#	160327
#	186185
#	205281
#	218248
#	234615
#	256329
#	276115
#	292728
#	327322
#
# Disc length: 4668 seconds
#
# Revision: 0
# Processed by: cddbd v1.4PL0 Copyright (c) Steve Scherf et al.
# Submitted via: audiograbber 1.80.04
#
DISCID=fd123912
DTITLE=Rão Kyao - O melhor dos tempos
DYEAR=1999
DGENRE=
TTITLE0=Fado bailado
TTITLE1=Canção do mar
TTITLE2=Foi Deus
TTITLE3=Tróia
TTITLE4=Canção da manhã
TTITLE5=Tu
TTITLE6=Rusga (Desgarrada)
TTITLE7=Toada Beirã
TTITLE8=Pela praia
TTITLE9=Bombaião
TTITLE10=Travessia
TTITLE11=Voz do Tejo
TTITLE12=Dança da folia
TTITLE13=Rota dos navegantes
TTITLE14=No balanço
TTITLE15=Na vindima
TTITLE16=Vozes no deserto
TTITLE17=Amor cantado
EXTD=
EXTT0=
EXTT1=
EXTT2=
EXTT3=
EXTT4=
EXTT5=
EXTT6=
EXTT7=
EXTT8=
EXTT9=
EXTT10=
EXTT11=
EXTT12=
EXTT13=
EXTT14=
EXTT15=
EXTT16=
EXTT17=
PLAYORDER=
